<svg width="80" height="89" viewBox="0 0 80 89" fill="none" xmlns="http://www.w3.org/2000/svg">
<path d="M65.3805 11.6582C65.0275 11.6582 64.6746 11.5703 64.3657 11.3945C55.8948 7.04312 48.5711 5.1971 39.7914 5.1971C31.0558 5.1971 22.7614 7.26289 15.217 11.3945C14.1582 11.9659 12.8346 11.5703 12.2169 10.5154C11.9418 10.0014 11.88 9.40028 12.045 8.84138C12.2101 8.28248 12.5886 7.81039 13.0993 7.52661C21.3055 3.08735 30.3058 0.801788 39.7914 0.801788C49.1887 0.801788 57.3949 2.86758 66.3952 7.48266C67.4982 8.05405 67.8952 9.37264 67.3217 10.4275C67.1473 10.7939 66.8725 11.1038 66.5291 11.3215C66.1857 11.5392 65.7875 11.6559 65.3805 11.6582ZM2.24599 34.7336C1.83931 34.7373 1.43952 34.6288 1.09098 34.42C0.742437 34.2112 0.45876 33.9103 0.271415 33.5507C0.0840694 33.1911 0.000379194 32.7868 0.0296268 32.3827C0.0588744 31.9786 0.199917 31.5904 0.437109 31.2613C4.8049 25.1078 10.3639 20.273 16.9818 16.8886C30.8352 9.76822 48.5711 9.72426 62.4686 16.8447C69.0865 20.229 74.6455 25.0199 79.0133 31.1294C79.1825 31.3656 79.3032 31.6329 79.3682 31.9158C79.4332 32.1987 79.4414 32.4916 79.3922 32.7777C79.3429 33.0637 79.2373 33.3373 79.0814 33.5824C78.9255 33.8276 78.7224 34.0396 78.4838 34.2061C77.4691 34.9094 76.1014 34.6896 75.3955 33.6787C71.5319 28.2302 66.3998 23.7961 60.4391 20.7565C47.7769 14.2954 31.5852 14.2954 18.9671 20.8004C12.9669 23.8772 7.93736 28.2725 3.96664 33.8106C3.61369 34.4259 2.9519 34.7336 2.24599 34.7336ZM29.8204 87.7849C29.5311 87.7885 29.2443 87.7316 28.9783 87.6181C28.7124 87.5045 28.4732 87.3368 28.2763 87.1256C24.4379 83.3017 22.3643 80.8403 19.4083 75.522C16.3641 70.1158 14.7758 63.5228 14.7758 56.4464C14.7758 43.3923 25.9821 32.7557 39.7472 32.7557C53.5124 32.7557 64.7187 43.3923 64.7187 56.4464C64.7187 57.6771 63.7481 58.644 62.5127 58.644C61.2774 58.644 60.3068 57.6771 60.3068 56.4464C60.3068 45.8097 51.0859 37.151 39.7472 37.151C28.4086 37.151 19.1877 45.8097 19.1877 56.4464C19.1877 62.7756 20.5996 68.6214 23.2908 73.3683C26.1144 78.4229 28.0557 80.5766 31.4529 84.005C32.2911 84.884 32.2911 86.2466 31.4529 87.1256C30.9675 87.5652 30.394 87.7849 29.8204 87.7849ZM61.4539 79.6536C56.2037 79.6536 51.5712 78.335 47.7769 75.7418C41.2032 71.3025 37.2766 64.0942 37.2766 56.4464C37.2766 55.2157 38.2472 54.2487 39.4825 54.2487C40.7179 54.2487 41.6885 55.2157 41.6885 56.4464C41.6885 62.6438 44.8651 68.4895 50.2476 72.0937C53.3801 74.2034 57.042 75.2144 61.4539 75.2144C62.5127 75.2144 64.2775 75.0825 66.0422 74.7748C67.2335 74.5551 68.3806 75.3462 68.6012 76.5769C68.8218 77.7636 68.0276 78.9064 66.7923 79.1262C64.2775 79.6097 62.0715 79.6536 61.4539 79.6536ZM52.5859 88.7079C52.4094 88.7079 52.1888 88.664 52.0124 88.62C44.9974 86.6861 40.409 84.0929 35.6001 79.3899C32.5527 76.3922 30.1362 72.8189 28.4923 68.8793C26.8484 64.9397 26.01 60.7128 26.0262 56.4464C26.0262 49.326 32.1146 43.5242 39.6149 43.5242C47.1151 43.5242 53.2036 49.326 53.2036 56.4464C53.2036 61.1494 57.3067 64.9733 62.3804 64.9733C67.4541 64.9733 71.5571 61.1494 71.5571 56.4464C71.5571 39.8761 57.2184 26.4264 39.5708 26.4264C27.0409 26.4264 15.57 33.371 10.408 44.1395C8.68739 47.6997 7.805 51.8753 7.805 56.4464C7.805 59.8747 8.11384 65.281 10.761 72.3135C11.2022 73.4562 10.6286 74.7309 9.48153 75.1264C8.33443 75.566 7.05498 74.9506 6.65791 73.8518C4.53198 68.2931 3.44059 62.3949 3.43721 56.4464C3.43721 51.172 4.45195 46.3811 6.43731 42.2056C12.3052 29.9427 25.3203 21.9872 39.5708 21.9872C59.645 21.9872 75.9691 37.4147 75.9691 56.4024C75.9691 63.5228 69.8806 69.3246 62.3804 69.3246C54.8801 69.3246 48.7917 63.5228 48.7917 56.4024C48.7917 51.6995 44.6886 47.8755 39.6149 47.8755C34.5412 47.8755 30.4381 51.6995 30.4381 56.4024C30.4381 63.9184 33.35 70.9509 38.6884 76.2253C42.8797 80.3569 46.8945 82.6424 53.1153 84.3566C54.3066 84.6643 54.9683 85.895 54.6595 87.0377C54.4389 88.0487 53.5124 88.7079 52.5859 88.7079Z" fill="#4CAF4F"/>
</svg>
