<svg width="20" height="20" viewBox="0 0 20 20" fill="none" xmlns="http://www.w3.org/2000/svg">
   <path fill-rule="evenodd" clip-rule="evenodd" d="M6.92954 2.47033C5.65833 2.32825 4.34242 2.32825 3.0712 2.47033C2.76231 2.50485 2.51872 2.74944 2.48397 3.0465C2.33217 4.34444 2.33217 5.65565 2.48397 6.95359C2.51872 7.25065 2.76231 7.49524 3.0712 7.52976C4.34242 7.67184 5.65833 7.67184 6.92954 7.52976C7.23843 7.49524 7.48203 7.25065 7.51678 6.95359C7.66858 5.65565 7.66858 4.34444 7.51678 3.0465C7.48203 2.74944 7.23843 2.50485 6.92954 2.47033ZM2.90459 0.979609C4.28654 0.825156 5.71421 0.825156 7.09615 0.979609C8.08699 1.09035 8.88944 1.87034 9.00662 2.87225C9.17197 4.28596 9.17197 5.71413 9.00662 7.12784C8.88944 8.12975 8.08699 8.90974 7.09615 9.02048C5.71421 9.17493 4.28654 9.17493 2.90459 9.02048C1.91375 8.90974 1.11131 8.12975 0.994127 7.12784C0.828781 5.71413 0.828781 4.28596 0.994127 2.87225C1.11131 1.87034 1.91375 1.09035 2.90459 0.979609Z" fill="black"/>
   <path fill-rule="evenodd" clip-rule="evenodd" d="M6.92954 12.4703C5.65833 12.3282 4.34242 12.3282 3.0712 12.4703C2.76231 12.5048 2.51872 12.7494 2.48397 13.0465C2.33217 14.3444 2.33217 15.6556 2.48397 16.9536C2.51872 17.2506 2.76231 17.4952 3.0712 17.5298C4.34242 17.6718 5.65833 17.6718 6.92954 17.5298C7.23843 17.4952 7.48203 17.2506 7.51678 16.9536C7.66858 15.6556 7.66858 14.3444 7.51678 13.0465C7.48203 12.7494 7.23843 12.5048 6.92954 12.4703ZM2.90459 10.9796C4.28654 10.8252 5.71421 10.8252 7.09615 10.9796C8.08699 11.0903 8.88944 11.8703 9.00662 12.8722C9.17197 14.286 9.17197 15.7141 9.00662 17.1278C8.88944 18.1297 8.08699 18.9097 7.09615 19.0205C5.71421 19.1749 4.28654 19.1749 2.90459 19.0205C1.91375 18.9097 1.11131 18.1297 0.994127 17.1278C0.828781 15.7141 0.828781 14.286 0.994127 12.8722C1.11131 11.8703 1.91375 11.0903 2.90459 10.9796Z" fill="black"/>
   <path fill-rule="evenodd" clip-rule="evenodd" d="M16.9295 2.47033C15.6583 2.32825 14.3424 2.32825 13.0712 2.47033C12.7623 2.50485 12.5187 2.74944 12.484 3.0465C12.3322 4.34444 12.3322 5.65565 12.484 6.95359C12.5187 7.25065 12.7623 7.49524 13.0712 7.52976C14.3424 7.67184 15.6583 7.67184 16.9295 7.52976C17.2384 7.49524 17.482 7.25065 17.5168 6.95359C17.6686 5.65565 17.6686 4.34444 17.5168 3.0465C17.482 2.74944 17.2384 2.50485 16.9295 2.47033ZM12.9046 0.979609C14.2865 0.825156 15.7142 0.825156 17.0962 0.979609C18.087 1.09035 18.8894 1.87034 19.0066 2.87225C19.172 4.28596 19.172 5.71413 19.0066 7.12784C18.8894 8.12975 18.087 8.90974 17.0962 9.02048C15.7142 9.17493 14.2865 9.17493 12.9046 9.02048C11.9138 8.90974 11.1113 8.12975 10.9941 7.12784C10.8288 5.71413 10.8288 4.28596 10.9941 2.87225C11.1113 1.87034 11.9138 1.09035 12.9046 0.979609Z" fill="black"/>
   <path fill-rule="evenodd" clip-rule="evenodd" d="M16.9295 12.4703C15.6583 12.3282 14.3424 12.3282 13.0712 12.4703C12.7623 12.5048 12.5187 12.7494 12.484 13.0465C12.3322 14.3444 12.3322 15.6556 12.484 16.9536C12.5187 17.2506 12.7623 17.4952 13.0712 17.5298C14.3424 17.6718 15.6583 17.6718 16.9295 17.5298C17.2384 17.4952 17.482 17.2506 17.5168 16.9536C17.6686 15.6556 17.6686 14.3444 17.5168 13.0465C17.482 12.7494 17.2384 12.5048 16.9295 12.4703ZM12.9046 10.9796C14.2865 10.8252 15.7142 10.8252 17.0962 10.9796C18.087 11.0903 18.8894 11.8703 19.0066 12.8722C19.172 14.286 19.172 15.7141 19.0066 17.1278C18.8894 18.1297 18.087 18.9097 17.0962 19.0205C15.7142 19.1749 14.2865 19.1749 12.9046 19.0205C11.9138 18.9097 11.1113 18.1297 10.9941 17.1278C10.8288 15.7141 10.8288 14.286 10.9941 12.8722C11.1113 11.8703 11.9138 11.0903 12.9046 10.9796Z" fill="black"/>
   </svg>
   