<svg width="24" height="24" viewBox="0 0 24 24" fill="none" xmlns="http://www.w3.org/2000/svg">
   <path d="M7.99965 7.25C8.41386 7.25 8.74965 7.58579 8.74965 8V9.25H9.99965C10.4139 9.25 10.7497 9.58579 10.7497 10C10.7497 10.4142 10.4139 10.75 9.99965 10.75H8.74965V12C8.74965 12.4142 8.41386 12.75 7.99965 12.75C7.58544 12.75 7.24965 12.4142 7.24965 12V10.75H5.99965C5.58544 10.75 5.24965 10.4142 5.24965 10C5.24965 9.58578 5.58544 9.25 5.99965 9.25H7.24965V8C7.24965 7.58579 7.58544 7.25 7.99965 7.25Z" fill="#191B1C"/>
   <path d="M16.9997 11.75C16.9997 11.1977 16.5519 10.75 15.9997 10.75C15.4474 10.75 14.9997 11.1977 14.9997 11.75V12C14.9997 12.5523 15.4474 13 15.9997 13C16.5519 13 16.9997 12.5523 16.9997 12V11.75Z" fill="#191B1C"/>
   <path d="M15.9997 7C16.5519 7 16.9997 7.44771 16.9997 8V8.25C16.9997 8.80228 16.5519 9.25 15.9997 9.25C15.4474 9.25 14.9997 8.80228 14.9997 8.25V8C14.9997 7.44771 15.4474 7 15.9997 7Z" fill="#191B1C"/>
   <path d="M18.9997 10C18.9997 10.5523 18.5519 11 17.9997 11H17.7497C17.1974 11 16.7497 10.5523 16.7497 10C16.7497 9.44771 17.1974 9 17.7497 9H17.9997C18.5519 9 18.9997 9.44771 18.9997 10Z" fill="#191B1C"/>
   <path d="M14.2497 11C14.8019 11 15.2497 10.5523 15.2497 10C15.2497 9.44771 14.8019 9 14.2497 9H13.9997C13.4474 9 12.9997 9.44771 12.9997 10C12.9997 10.5523 13.4474 11 13.9997 11H14.2497Z" fill="#191B1C"/>
   <path fill-rule="evenodd" clip-rule="evenodd" d="M12.7497 3C12.7497 2.58579 12.4139 2.25 11.9997 2.25C11.5854 2.25 11.2497 2.58579 11.2497 3V4.48688C9.81055 4.50654 8.37202 4.58282 6.93742 4.71571L6.60582 4.74642C4.21412 4.96797 2.37244 6.95407 2.33173 9.35566L2.31964 10.0691C2.27234 12.8602 2.49732 15.6492 2.99139 18.3967C3.23635 19.7588 4.42169 20.75 5.8057 20.75H6.02675C7.2621 20.75 8.38142 20.022 8.88228 18.8927L9.94288 16.5014C10.734 14.7177 13.2653 14.7177 14.0564 16.5014L15.117 18.8927C15.6179 20.022 16.7372 20.75 17.9726 20.75H18.1936C19.5776 20.75 20.763 19.7588 21.0079 18.3967C21.502 15.6492 21.727 12.8602 21.6797 10.0691L21.6676 9.35566C21.6269 6.95406 19.7852 4.96797 17.3935 4.74643L17.0619 4.71571C15.6273 4.58282 14.1888 4.50654 12.7497 4.48688V3ZM7.07578 6.20931C10.3513 5.9059 13.648 5.9059 16.9235 6.20931L17.2551 6.24003C18.885 6.39101 20.14 7.74447 20.1678 9.38108L20.1799 10.0945C20.2255 12.7881 20.0084 15.4797 19.5316 18.1312C19.4151 18.7788 18.8516 19.25 18.1936 19.25H17.9726C17.3304 19.25 16.7486 18.8716 16.4882 18.2846L15.4276 15.8933C14.1091 12.9205 9.89021 12.9205 8.57169 15.8933L7.51109 18.2846C7.25074 18.8716 6.6689 19.25 6.02675 19.25H5.8057C5.14771 19.25 4.58417 18.7788 4.46771 18.1312C3.9909 15.4797 3.77378 12.7881 3.81943 10.0945L3.83152 9.38108C3.85926 7.74447 5.11431 6.39101 6.74418 6.24003L7.07578 6.20931Z" fill="#191B1C"/>
   </svg>
   