<svg width="24" height="24" viewBox="0 0 24 24" fill="none" xmlns="http://www.w3.org/2000/svg">
   <path fill-rule="evenodd" clip-rule="evenodd" d="M11.6023 18.6362C11.7303 18.7129 11.8671 18.7469 12 18.7453C12.1329 18.7469 12.2698 18.7129 12.3977 18.6362L13.533 17.955C15.7595 16.6191 18.4825 16.4009 20.8933 17.3652C21.7826 17.721 22.75 17.066 22.75 16.1082V4.4493C22.75 3.87135 22.3981 3.35163 21.8615 3.13699C18.7564 1.89495 15.2492 2.17597 12.3815 3.89659L12 4.12551L11.6185 3.89659C8.75077 2.17597 5.24357 1.89495 2.13848 3.13699C1.60187 3.35163 1.25 3.87135 1.25 4.4493V16.1082C1.25 17.066 2.21739 17.721 3.10672 17.3652C5.51752 16.4009 8.24052 16.6191 10.467 17.955L11.6023 18.6362ZM2.75 4.50813V15.8949C5.54579 14.8469 8.67179 15.1286 11.2388 16.6688L11.25 16.6755V5.4248L10.8467 5.18283C8.39774 3.71344 5.40634 3.4651 2.75 4.50813ZM12.7612 16.6688L12.75 16.6755V5.4248L13.1533 5.18283C15.6023 3.71344 18.5937 3.4651 21.25 4.50813V15.8949C18.4542 14.8469 15.3282 15.1286 12.7612 16.6688Z" fill="#191B1C"/>
   <path d="M9.27516 19.0424C7.2513 17.8618 4.7487 17.8618 2.72484 19.0424L2.6221 19.1023C2.26431 19.311 2.14346 19.7703 2.35217 20.1281C2.56088 20.4858 3.02011 20.6067 3.3779 20.398L3.48065 20.3381C5.03746 19.4299 6.96254 19.4299 8.51935 20.3381L9.60661 20.9723C11.0856 21.835 12.9144 21.835 14.3934 20.9723L15.4806 20.3381C17.0375 19.4299 18.9625 19.4299 20.5194 20.3381L20.6221 20.398C20.9799 20.6067 21.4391 20.4858 21.6478 20.1281C21.8565 19.7703 21.7357 19.311 21.3779 19.1023L21.2752 19.0424C19.2513 17.8618 16.7487 17.8618 14.7248 19.0424L13.6376 19.6766C12.6257 20.2669 11.3743 20.2669 10.3624 19.6766L9.27516 19.0424Z" fill="#191B1C"/>
   </svg>
   